<svg preserveAspectRatio="none" width="100%" height="100%" overflow="visible" style="display: block;" viewBox="0 0 20 18" fill="none" xmlns="http://www.w3.org/2000/svg">
<path id="Union" d="M11 18H9V16H11V18ZM9 16H7V14H9V16ZM13 16H11V14H13V16ZM5.00781 10.0049L5.00391 12H7V14H5V12.0039L1.99805 12L2.00195 10L5.00781 10.0049ZM18.0078 10.0049L18.0039 12.0049L15 12V14H13V12H14.998L15.002 10L18.0078 10.0049ZM2 10H0V2H2V10ZM20 10H18V2H20V10ZM11 6H9V4H11V6ZM9 4H7V2H9V4ZM13 4H11V2H13V4ZM7 2H2V0H7V2ZM18 2H13V0H18V2Z" fill="var(--fill-0, #0C4832)"/>
</svg>
