<svg width="16" height="17" viewBox="0 0 16 17" fill="none" xmlns="http://www.w3.org/2000/svg">
<path d="M12.3447 10.5723L12.3896 10.626C12.4311 10.6822 12.4614 10.7467 12.4766 10.8154L13.4994 15.5049H12.5039L11.5293 11.1699L9.64355 9.24902L10.3564 8.54785L12.3447 10.5723Z" fill="black"/>
<path d="M6.34473 9.25391L4.46094 11.1719L3.49308 15.503H2.5L3.51562 10.8184L3.53516 10.751C3.55956 10.6855 3.59719 10.6254 3.64648 10.5752L5.63184 8.55273L6.34473 9.25391Z" fill="black"/>
<path fill-rule="evenodd" clip-rule="evenodd" d="M8.02637 1.5C9.96422 1.5 11.5352 3.07094 11.5352 5.00879C11.5352 6.94664 9.96422 8.51758 8.02637 8.51758C6.08852 8.51758 4.51758 6.94664 4.51758 5.00879C4.51758 3.07094 6.08852 1.5 8.02637 1.5ZM8.02637 2.5C6.6408 2.5 5.51758 3.62322 5.51758 5.00879C5.51758 6.39435 6.6408 7.51758 8.02637 7.51758C9.41193 7.51758 10.5352 6.39436 10.5352 5.00879C10.5352 3.62322 9.41193 2.5 8.02637 2.5Z" fill="black"/>
</svg>
