<svg width="17" height="17" viewBox="0 0 17 17" fill="none" xmlns="http://www.w3.org/2000/svg">
<path fill-rule="evenodd" clip-rule="evenodd" d="M11.7226 5.00098H15.4159C15.4159 5.00098 15.4158 6.64884 15.4159 9.94238L15.4101 10.248C15.3081 12.975 13.8718 14.9788 13.5029 15.4502L13.4169 15.5557H3.42669C3.40054 15.5263 1.56335 13.4547 1.42864 10.3242L1.42181 10.0156C1.40059 6.6938 1.42079 5.00418 1.42083 5.00098H5.10931V1.55469H11.7226V5.00098ZM2.41302 6.26465C2.41044 7.09959 2.41121 8.35046 2.42181 10.0098C2.43123 11.474 2.87287 12.7036 3.32122 13.5752C3.53837 13.9973 3.7539 14.3296 3.91497 14.5557H12.9189C13.083 14.319 13.3027 13.972 13.5234 13.5342C13.9763 12.6357 14.416 11.3882 14.4159 9.94238V6.00098H2.41399C2.41365 6.08367 2.4133 6.17162 2.41302 6.26465ZM6.10931 4.99609H10.7226V2.55469H6.10931V4.99609Z" fill="black"/>
</svg>
